<?xml version="1.0" standalone="no"?>
<!DOCTYPE svg PUBLIC "-//W3C//DTD SVG 20010904//EN"
 "http://www.w3.org/TR/2001/REC-SVG-20010904/DTD/svg10.dtd">
<svg version="1.0" xmlns="http://www.w3.org/2000/svg"
 width="108.000000pt" height="105.000000pt" viewBox="0 0 108.000000 105.000000"
 preserveAspectRatio="xMidYMid meet">
<metadata>
Created by potrace 1.10, written by Peter Selinger 2001-2011
</metadata>
<g transform="translate(0.000000,105.000000) scale(0.100000,-0.100000)" stroke="none">
<path fill='rgb(70,140,240)' d="M200 1003 c0 -5 20 -26 45 -46 25 -21 45 -42 45 -47 0 -5 -21 -31
-46 -57 -56 -57 -102 -151 -119 -239 l-12 -64 119 0 118 0 0 33 c0 48 73 157
106 157 7 0 35 -25 62 -55 28 -30 53 -55 55 -55 3 0 2 30 0 68 -6 73 -23 110
-23 49 0 -44 -16 -48 -50 -12 -30 32 -58 32 -95 -2 -39 -37 -60 -70 -76 -122
l-12 -42 -81 3 -81 3 -3 33 c-2 19 3 48 11 65 8 18 22 49 31 71 9 21 36 59 61
83 54 54 62 76 40 109 -9 14 -14 28 -11 31 2 3 64 6 137 7 96 1 133 4 137 14
3 9 -34 12 -161 12 -91 0 -172 3 -181 6 -9 3 -16 2 -16 -3z"/>
<path fill='rgb(30,60,175)' d="M580 891 c0 -105 1 -111 20 -111 34 0 105 -39 144 -78 l37 -38 -61
-58 c-33 -32 -60 -59 -60 -62 0 -2 83 -3 185 -2 l185 3 3 188 c1 103 0 187 -3
186 -3 0 -24 -22 -46 -49 l-42 -48 -33 35 c-74 76 -179 129 -281 140 l-48 5 0
-111z m198 27 c59 -32 72 -41 109 -80 37 -40 60 -44 89 -17 28 26 26 33 29
-105 3 -155 15 -142 -136 -144 -71 -1 -129 0 -129 3 0 2 14 20 31 40 37 42 34
73 -11 115 -29 27 -110 70 -140 75 -22 3 -27 126 -6 147 20 21 90 6 164 -34z"/>
<path fill='rgb(180,180,180)' d="M115 350 c0 -105 2 -190 4 -190 2 0 21 20 43 45 22 25 44 45 49 45 5
0 26 -18 46 -40 23 -26 67 -56 122 -83 85 -41 87 -41 198 -42 77 0 116 4 124
13 7 6 22 12 34 12 31 0 115 53 163 103 l43 44 -82 82 -83 82 -35 -34 c-55
-51 -85 -66 -145 -73 -48 -6 -63 -3 -110 20 -30 15 -67 41 -82 59 l-26 31 61
58 62 58 -92 0 c-98 0 -112 -11 -27 -20 46 -4 50 -7 37 -20 -28 -29 -49 -65
-49 -85 1 -19 32 -65 45 -65 3 0 21 -11 38 -24 41 -31 145 -48 179 -30 12 7
25 11 28 9 4 -2 30 14 58 36 29 21 57 39 62 39 5 0 36 -27 69 -61 l61 -61 -22
-24 c-25 -27 -88 -71 -128 -91 -58 -29 -240 -56 -240 -36 0 4 -15 9 -33 10
-51 2 -136 45 -204 101 -34 29 -65 52 -69 52 -4 0 -22 -12 -41 -26 l-34 -26 3
161 c3 138 1 161 -12 161 -13 0 -15 -28 -15 -190z"/>
</g>
</svg>
